<?xml version="1.0" encoding="UTF-8" standalone="no"?>
<!DOCTYPE svg PUBLIC "-//W3C//DTD SVG 1.1//EN"
 "http://www.w3.org/Graphics/SVG/1.1/DTD/svg11.dtd">
<!-- Generated by graphviz version 2.46.0 (20210119.1425)
 -->
<!-- Title: dependencies Pages: 1 -->
<svg width="620pt" height="211pt"
 viewBox="0.00 0.00 620.00 211.00" xmlns="http://www.w3.org/2000/svg" xmlns:xlink="http://www.w3.org/1999/xlink">
<g id="graph0" class="graph" transform="scale(1 1) rotate(0) translate(4 207)">
<title>dependencies</title>
<polygon fill="white" stroke="transparent" points="-4,4 -4,-207 616,-207 616,4 -4,4"/>
<text text-anchor="start" x="285.01" y="-42.4" font-family="sans-serif" font-weight="bold" font-size="14.00">Legend</text>
<polygon fill="#ffffb3" stroke="transparent" points="72,-10 72,-30 92,-30 92,-10 72,-10"/>
<text text-anchor="start" x="95.63" y="-15.4" font-family="sans-serif" font-size="14.00"> &#160;Declarations</text>
<polygon fill="#8dd3c7" stroke="transparent" points="185,-10 185,-30 205,-30 205,-10 185,-10"/>
<text text-anchor="start" x="208.73" y="-15.4" font-family="sans-serif" font-size="14.00"> &#160;Module</text>
<polygon fill="#80b1d3" stroke="transparent" points="271,-10 271,-30 291,-30 291,-10 271,-10"/>
<text text-anchor="start" x="294.78" y="-15.4" font-family="sans-serif" font-size="14.00"> &#160;Bootstrap</text>
<polygon fill="#fdb462" stroke="transparent" points="368,-10 368,-30 388,-30 388,-10 368,-10"/>
<text text-anchor="start" x="391.67" y="-15.4" font-family="sans-serif" font-size="14.00"> &#160;Providers</text>
<polygon fill="#fb8072" stroke="transparent" points="464,-10 464,-30 484,-30 484,-10 464,-10"/>
<text text-anchor="start" x="487.73" y="-15.4" font-family="sans-serif" font-size="14.00"> &#160;Exports</text>
<g id="clust1" class="cluster">
<title>cluster_GameModule</title>
<polygon fill="none" stroke="black" stroke-dasharray="1,5" points="8,-70 8,-195 604,-195 604,-70 8,-70"/>
</g>
<g id="clust2" class="cluster">
<title>cluster_GameModule_declarations</title>
<polygon fill="none" stroke="black" points="178,-78 178,-130 596,-130 596,-78 178,-78"/>
</g>
<g id="clust6" class="cluster">
<title>cluster_GameModule_imports</title>
<polygon fill="none" stroke="black" points="16,-78 16,-130 170,-130 170,-78 16,-78"/>
</g>
<!-- GameOverComponent -->
<g id="node1" class="node">
<title>GameOverComponent</title>
<polygon fill="#ffffb3" stroke="black" points="588.24,-122 445.76,-122 445.76,-86 588.24,-86 588.24,-122"/>
<text text-anchor="middle" x="517" y="-99.8" font-family="Times,serif" font-size="14.00">GameOverComponent</text>
</g>
<!-- GameModule -->
<g id="node4" class="node">
<title>GameModule</title>
<polygon fill="#8dd3c7" stroke="black" points="351.48,-187 348.48,-191 327.48,-191 324.48,-187 258.52,-187 258.52,-151 351.48,-151 351.48,-187"/>
<text text-anchor="middle" x="305" y="-164.8" font-family="Times,serif" font-size="14.00">GameModule</text>
</g>
<!-- GameOverComponent&#45;&gt;GameModule -->
<g id="edge1" class="edge">
<title>GameOverComponent&#45;&gt;GameModule</title>
<path fill="none" stroke="black" d="M517,-122.11C517,-141.34 517,-169 517,-169 517,-169 361.52,-169 361.52,-169"/>
<polygon fill="black" stroke="black" points="361.52,-165.5 351.52,-169 361.52,-172.5 361.52,-165.5"/>
</g>
<!-- SnakeComponent -->
<g id="node2" class="node">
<title>SnakeComponent</title>
<polygon fill="#ffffb3" stroke="black" points="427.55,-122 312.45,-122 312.45,-86 427.55,-86 427.55,-122"/>
<text text-anchor="middle" x="370" y="-99.8" font-family="Times,serif" font-size="14.00">SnakeComponent</text>
</g>
<!-- SnakeComponent&#45;&gt;GameModule -->
<g id="edge2" class="edge">
<title>SnakeComponent&#45;&gt;GameModule</title>
<path fill="none" stroke="black" d="M331.86,-122.11C331.86,-122.11 331.86,-140.99 331.86,-140.99"/>
<polygon fill="black" stroke="black" points="328.36,-140.99 331.86,-150.99 335.36,-140.99 328.36,-140.99"/>
</g>
<!-- StartComponent -->
<g id="node3" class="node">
<title>StartComponent</title>
<polygon fill="#ffffb3" stroke="black" points="293.77,-122 186.23,-122 186.23,-86 293.77,-86 293.77,-122"/>
<text text-anchor="middle" x="240" y="-99.8" font-family="Times,serif" font-size="14.00">StartComponent</text>
</g>
<!-- StartComponent&#45;&gt;GameModule -->
<g id="edge3" class="edge">
<title>StartComponent&#45;&gt;GameModule</title>
<path fill="none" stroke="black" d="M276.2,-122.11C276.2,-122.11 276.2,-140.99 276.2,-140.99"/>
<polygon fill="black" stroke="black" points="272.7,-140.99 276.2,-150.99 279.7,-140.99 272.7,-140.99"/>
</g>
<!-- GameRoutingModule -->
<g id="node5" class="node">
<title>GameRoutingModule</title>
<polygon fill="#8dd3c7" stroke="black" points="162.09,-122 159.09,-126 138.09,-126 135.09,-122 23.91,-122 23.91,-86 162.09,-86 162.09,-122"/>
<text text-anchor="middle" x="93" y="-99.8" font-family="Times,serif" font-size="14.00">GameRoutingModule</text>
</g>
<!-- GameRoutingModule&#45;&gt;GameModule -->
<g id="edge4" class="edge">
<title>GameRoutingModule&#45;&gt;GameModule</title>
<path fill="none" stroke="black" d="M93,-122.11C93,-141.34 93,-169 93,-169 93,-169 248.48,-169 248.48,-169"/>
<polygon fill="black" stroke="black" points="248.48,-172.5 258.48,-169 248.48,-165.5 248.48,-172.5"/>
</g>
</g>
</svg>
