<?xml version="1.0" encoding="UTF-8" standalone="no"?>
<!DOCTYPE svg PUBLIC "-//W3C//DTD SVG 1.1//EN"
 "http://www.w3.org/Graphics/SVG/1.1/DTD/svg11.dtd">
<!-- Generated by graphviz version 2.46.0 (20210119.1425)
 -->
<!-- Title: dependencies Pages: 1 -->
<svg width="617pt" height="284pt"
 viewBox="0.00 0.00 617.00 284.00" xmlns="http://www.w3.org/2000/svg" xmlns:xlink="http://www.w3.org/1999/xlink">
<g id="graph0" class="graph" transform="scale(1 1) rotate(0) translate(4 280)">
<title>dependencies</title>
<polygon fill="white" stroke="transparent" points="-4,4 -4,-280 613,-280 613,4 -4,4"/>
<text text-anchor="start" x="283.51" y="-42.4" font-family="sans-serif" font-weight="bold" font-size="14.00">Legend</text>
<polygon fill="#ffffb3" stroke="transparent" points="70.5,-10 70.5,-30 90.5,-30 90.5,-10 70.5,-10"/>
<text text-anchor="start" x="94.13" y="-15.4" font-family="sans-serif" font-size="14.00"> &#160;Declarations</text>
<polygon fill="#8dd3c7" stroke="transparent" points="183.5,-10 183.5,-30 203.5,-30 203.5,-10 183.5,-10"/>
<text text-anchor="start" x="207.23" y="-15.4" font-family="sans-serif" font-size="14.00"> &#160;Module</text>
<polygon fill="#80b1d3" stroke="transparent" points="269.5,-10 269.5,-30 289.5,-30 289.5,-10 269.5,-10"/>
<text text-anchor="start" x="293.28" y="-15.4" font-family="sans-serif" font-size="14.00"> &#160;Bootstrap</text>
<polygon fill="#fdb462" stroke="transparent" points="366.5,-10 366.5,-30 386.5,-30 386.5,-10 366.5,-10"/>
<text text-anchor="start" x="390.17" y="-15.4" font-family="sans-serif" font-size="14.00"> &#160;Providers</text>
<polygon fill="#fb8072" stroke="transparent" points="462.5,-10 462.5,-30 482.5,-30 482.5,-10 462.5,-10"/>
<text text-anchor="start" x="486.23" y="-15.4" font-family="sans-serif" font-size="14.00"> &#160;Exports</text>
<g id="clust1" class="cluster">
<title>cluster_AuthModule</title>
<polygon fill="none" stroke="black" stroke-dasharray="1,5" points="8,-70 8,-268 601,-268 601,-70 8,-70"/>
</g>
<g id="clust2" class="cluster">
<title>cluster_AuthModule_declarations</title>
<polygon fill="none" stroke="black" points="172,-78 172,-130 593,-130 593,-78 172,-78"/>
</g>
<g id="clust7" class="cluster">
<title>cluster_AuthModule_exports</title>
<polygon fill="none" stroke="black" points="198,-208 198,-260 458,-260 458,-208 198,-208"/>
</g>
<g id="clust6" class="cluster">
<title>cluster_AuthModule_imports</title>
<polygon fill="none" stroke="black" points="16,-78 16,-130 164,-130 164,-78 16,-78"/>
</g>
<!-- LoginComponent -->
<g id="node1" class="node">
<title>LoginComponent</title>
<polygon fill="#ffffb3" stroke="black" points="585.28,-122 470.72,-122 470.72,-86 585.28,-86 585.28,-122"/>
<text text-anchor="middle" x="528" y="-99.8" font-family="Times,serif" font-size="14.00">LoginComponent</text>
</g>
<!-- AuthModule -->
<g id="node4" class="node">
<title>AuthModule</title>
<polygon fill="#8dd3c7" stroke="black" points="368.55,-187 365.55,-191 344.55,-191 341.55,-187 281.45,-187 281.45,-151 368.55,-151 368.55,-187"/>
<text text-anchor="middle" x="325" y="-164.8" font-family="Times,serif" font-size="14.00">AuthModule</text>
</g>
<!-- LoginComponent&#45;&gt;AuthModule -->
<g id="edge1" class="edge">
<title>LoginComponent&#45;&gt;AuthModule</title>
<path fill="none" stroke="black" d="M528,-122.11C528,-141.34 528,-169 528,-169 528,-169 378.55,-169 378.55,-169"/>
<polygon fill="black" stroke="black" points="378.55,-165.5 368.55,-169 378.55,-172.5 378.55,-165.5"/>
</g>
<!-- NavComponent -->
<g id="node2" class="node">
<title>NavComponent</title>
<polygon fill="#ffffb3" stroke="black" points="452.15,-122 347.85,-122 347.85,-86 452.15,-86 452.15,-122"/>
<text text-anchor="middle" x="400" y="-99.8" font-family="Times,serif" font-size="14.00">NavComponent</text>
</g>
<!-- NavComponent&#45;&gt;AuthModule -->
<g id="edge2" class="edge">
<title>NavComponent&#45;&gt;AuthModule</title>
<path fill="none" stroke="black" d="M358.22,-122.11C358.22,-122.11 358.22,-140.99 358.22,-140.99"/>
<polygon fill="black" stroke="black" points="354.72,-140.99 358.22,-150.99 361.72,-140.99 354.72,-140.99"/>
</g>
<!-- RegistrationComponent -->
<g id="node3" class="node">
<title>RegistrationComponent</title>
<polygon fill="#ffffb3" stroke="black" points="329.77,-122 180.23,-122 180.23,-86 329.77,-86 329.77,-122"/>
<text text-anchor="middle" x="255" y="-99.8" font-family="Times,serif" font-size="14.00">RegistrationComponent</text>
</g>
<!-- RegistrationComponent&#45;&gt;AuthModule -->
<g id="edge3" class="edge">
<title>RegistrationComponent&#45;&gt;AuthModule</title>
<path fill="none" stroke="black" d="M305.55,-122.11C305.55,-122.11 305.55,-140.99 305.55,-140.99"/>
<polygon fill="black" stroke="black" points="302.05,-140.99 305.55,-150.99 309.05,-140.99 302.05,-140.99"/>
</g>
<!-- LoginComponent  -->
<g id="node6" class="node">
<title>LoginComponent </title>
<polygon fill="#fb8072" stroke="black" points="450.28,-252 331.72,-252 331.72,-216 450.28,-216 450.28,-252"/>
<text text-anchor="middle" x="391" y="-229.8" font-family="Times,serif" font-size="14.00">LoginComponent </text>
</g>
<!-- AuthModule&#45;&gt;LoginComponent  -->
<g id="edge5" class="edge">
<title>AuthModule&#45;&gt;LoginComponent </title>
<path fill="none" stroke="black" stroke-dasharray="5,2" d="M350.32,-187.11C350.32,-187.11 350.32,-205.99 350.32,-205.99"/>
<polygon fill="black" stroke="black" points="346.82,-205.99 350.32,-215.99 353.82,-205.99 346.82,-205.99"/>
</g>
<!-- NavComponent  -->
<g id="node7" class="node">
<title>NavComponent </title>
<polygon fill="#fb8072" stroke="black" points="314.15,-252 205.85,-252 205.85,-216 314.15,-216 314.15,-252"/>
<text text-anchor="middle" x="260" y="-229.8" font-family="Times,serif" font-size="14.00">NavComponent </text>
</g>
<!-- AuthModule&#45;&gt;NavComponent  -->
<g id="edge6" class="edge">
<title>AuthModule&#45;&gt;NavComponent </title>
<path fill="none" stroke="black" stroke-dasharray="5,2" d="M297.65,-187.11C297.65,-187.11 297.65,-205.99 297.65,-205.99"/>
<polygon fill="black" stroke="black" points="294.15,-205.99 297.65,-215.99 301.15,-205.99 294.15,-205.99"/>
</g>
<!-- AuthRoutingModule -->
<g id="node5" class="node">
<title>AuthRoutingModule</title>
<polygon fill="#8dd3c7" stroke="black" points="156.17,-122 153.17,-126 132.17,-126 129.17,-122 23.83,-122 23.83,-86 156.17,-86 156.17,-122"/>
<text text-anchor="middle" x="90" y="-99.8" font-family="Times,serif" font-size="14.00">AuthRoutingModule</text>
</g>
<!-- AuthRoutingModule&#45;&gt;AuthModule -->
<g id="edge4" class="edge">
<title>AuthRoutingModule&#45;&gt;AuthModule</title>
<path fill="none" stroke="black" d="M90,-122.11C90,-141.34 90,-169 90,-169 90,-169 271.35,-169 271.35,-169"/>
<polygon fill="black" stroke="black" points="271.35,-172.5 281.35,-169 271.35,-165.5 271.35,-172.5"/>
</g>
</g>
</svg>
