<?xml version="1.0" encoding="UTF-8" standalone="no"?>
<!DOCTYPE svg PUBLIC "-//W3C//DTD SVG 1.1//EN"
 "http://www.w3.org/Graphics/SVG/1.1/DTD/svg11.dtd">
<!-- Generated by graphviz version 2.46.0 (20210119.1425)
 -->
<!-- Title: dependencies Pages: 1 -->
<svg width="599pt" height="211pt"
 viewBox="0.00 0.00 599.00 211.00" xmlns="http://www.w3.org/2000/svg" xmlns:xlink="http://www.w3.org/1999/xlink">
<g id="graph0" class="graph" transform="scale(1 1) rotate(0) translate(4 207)">
<title>dependencies</title>
<polygon fill="white" stroke="transparent" points="-4,4 -4,-207 595,-207 595,4 -4,4"/>
<text text-anchor="start" x="274.51" y="-42.4" font-family="sans-serif" font-weight="bold" font-size="14.00">Legend</text>
<polygon fill="#ffffb3" stroke="transparent" points="61.5,-10 61.5,-30 81.5,-30 81.5,-10 61.5,-10"/>
<text text-anchor="start" x="85.13" y="-15.4" font-family="sans-serif" font-size="14.00"> &#160;Declarations</text>
<polygon fill="#8dd3c7" stroke="transparent" points="174.5,-10 174.5,-30 194.5,-30 194.5,-10 174.5,-10"/>
<text text-anchor="start" x="198.23" y="-15.4" font-family="sans-serif" font-size="14.00"> &#160;Module</text>
<polygon fill="#80b1d3" stroke="transparent" points="260.5,-10 260.5,-30 280.5,-30 280.5,-10 260.5,-10"/>
<text text-anchor="start" x="284.28" y="-15.4" font-family="sans-serif" font-size="14.00"> &#160;Bootstrap</text>
<polygon fill="#fdb462" stroke="transparent" points="357.5,-10 357.5,-30 377.5,-30 377.5,-10 357.5,-10"/>
<text text-anchor="start" x="381.17" y="-15.4" font-family="sans-serif" font-size="14.00"> &#160;Providers</text>
<polygon fill="#fb8072" stroke="transparent" points="453.5,-10 453.5,-30 473.5,-30 473.5,-10 453.5,-10"/>
<text text-anchor="start" x="477.23" y="-15.4" font-family="sans-serif" font-size="14.00"> &#160;Exports</text>
<g id="clust1" class="cluster">
<title>cluster_ProfileModule</title>
<polygon fill="none" stroke="black" stroke-dasharray="1,5" points="8,-70 8,-195 583,-195 583,-70 8,-70"/>
</g>
<g id="clust2" class="cluster">
<title>cluster_ProfileModule_declarations</title>
<polygon fill="none" stroke="black" points="317,-78 317,-130 575,-130 575,-78 317,-78"/>
</g>
<g id="clust5" class="cluster">
<title>cluster_ProfileModule_imports</title>
<polygon fill="none" stroke="black" points="16,-78 16,-130 309,-130 309,-78 16,-78"/>
</g>
<!-- EditComponent -->
<g id="node1" class="node">
<title>EditComponent</title>
<polygon fill="#ffffb3" stroke="black" points="567.17,-122 462.83,-122 462.83,-86 567.17,-86 567.17,-122"/>
<text text-anchor="middle" x="515" y="-99.8" font-family="Times,serif" font-size="14.00">EditComponent</text>
</g>
<!-- ProfileModule -->
<g id="node3" class="node">
<title>ProfileModule</title>
<polygon fill="#8dd3c7" stroke="black" points="355.65,-187 352.65,-191 331.65,-191 328.65,-187 258.35,-187 258.35,-151 355.65,-151 355.65,-187"/>
<text text-anchor="middle" x="307" y="-164.8" font-family="Times,serif" font-size="14.00">ProfileModule</text>
</g>
<!-- EditComponent&#45;&gt;ProfileModule -->
<g id="edge1" class="edge">
<title>EditComponent&#45;&gt;ProfileModule</title>
<path fill="none" stroke="black" d="M515,-122.11C515,-141.34 515,-169 515,-169 515,-169 365.77,-169 365.77,-169"/>
<polygon fill="black" stroke="black" points="365.77,-165.5 355.77,-169 365.77,-172.5 365.77,-165.5"/>
</g>
<!-- ProfileComponent -->
<g id="node2" class="node">
<title>ProfileComponent</title>
<polygon fill="#ffffb3" stroke="black" points="444.93,-122 325.07,-122 325.07,-86 444.93,-86 444.93,-122"/>
<text text-anchor="middle" x="385" y="-99.8" font-family="Times,serif" font-size="14.00">ProfileComponent</text>
</g>
<!-- ProfileComponent&#45;&gt;ProfileModule -->
<g id="edge2" class="edge">
<title>ProfileComponent&#45;&gt;ProfileModule</title>
<path fill="none" stroke="black" d="M340.55,-122.11C340.55,-122.11 340.55,-140.99 340.55,-140.99"/>
<polygon fill="black" stroke="black" points="337.05,-140.99 340.55,-150.99 344.05,-140.99 337.05,-140.99"/>
</g>
<!-- ProfileRoutingModule -->
<g id="node4" class="node">
<title>ProfileRoutingModule</title>
<polygon fill="#8dd3c7" stroke="black" points="301.27,-122 298.27,-126 277.27,-126 274.27,-122 158.73,-122 158.73,-86 301.27,-86 301.27,-122"/>
<text text-anchor="middle" x="230" y="-99.8" font-family="Times,serif" font-size="14.00">ProfileRoutingModule</text>
</g>
<!-- ProfileRoutingModule&#45;&gt;ProfileModule -->
<g id="edge3" class="edge">
<title>ProfileRoutingModule&#45;&gt;ProfileModule</title>
<path fill="none" stroke="black" d="M279.78,-122.11C279.78,-122.11 279.78,-140.99 279.78,-140.99"/>
<polygon fill="black" stroke="black" points="276.28,-140.99 279.78,-150.99 283.28,-140.99 276.28,-140.99"/>
</g>
<!-- RateChartModule -->
<g id="node5" class="node">
<title>RateChartModule</title>
<polygon fill="#8dd3c7" stroke="black" points="140.31,-122 137.31,-126 116.31,-126 113.31,-122 23.69,-122 23.69,-86 140.31,-86 140.31,-122"/>
<text text-anchor="middle" x="82" y="-99.8" font-family="Times,serif" font-size="14.00">RateChartModule</text>
</g>
<!-- RateChartModule&#45;&gt;ProfileModule -->
<g id="edge4" class="edge">
<title>RateChartModule&#45;&gt;ProfileModule</title>
<path fill="none" stroke="black" d="M82,-122.11C82,-141.34 82,-169 82,-169 82,-169 248.18,-169 248.18,-169"/>
<polygon fill="black" stroke="black" points="248.18,-172.5 258.18,-169 248.18,-165.5 248.18,-172.5"/>
</g>
</g>
</svg>
