<?xml version="1.0" encoding="UTF-8" standalone="no"?>
<!DOCTYPE svg PUBLIC "-//W3C//DTD SVG 1.1//EN"
 "http://www.w3.org/Graphics/SVG/1.1/DTD/svg11.dtd">
<!-- Generated by graphviz version 2.46.0 (20210119.1425)
 -->
<!-- Title: dependencies Pages: 1 -->
<svg width="659pt" height="284pt"
 viewBox="0.00 0.00 659.00 284.00" xmlns="http://www.w3.org/2000/svg" xmlns:xlink="http://www.w3.org/1999/xlink">
<g id="graph0" class="graph" transform="scale(1 1) rotate(0) translate(4 280)">
<title>dependencies</title>
<polygon fill="white" stroke="transparent" points="-4,4 -4,-280 655,-280 655,4 -4,4"/>
<text text-anchor="start" x="304.51" y="-42.4" font-family="sans-serif" font-weight="bold" font-size="14.00">Legend</text>
<polygon fill="#ffffb3" stroke="transparent" points="91.5,-10 91.5,-30 111.5,-30 111.5,-10 91.5,-10"/>
<text text-anchor="start" x="115.13" y="-15.4" font-family="sans-serif" font-size="14.00"> &#160;Declarations</text>
<polygon fill="#8dd3c7" stroke="transparent" points="204.5,-10 204.5,-30 224.5,-30 224.5,-10 204.5,-10"/>
<text text-anchor="start" x="228.23" y="-15.4" font-family="sans-serif" font-size="14.00"> &#160;Module</text>
<polygon fill="#80b1d3" stroke="transparent" points="290.5,-10 290.5,-30 310.5,-30 310.5,-10 290.5,-10"/>
<text text-anchor="start" x="314.28" y="-15.4" font-family="sans-serif" font-size="14.00"> &#160;Bootstrap</text>
<polygon fill="#fdb462" stroke="transparent" points="387.5,-10 387.5,-30 407.5,-30 407.5,-10 387.5,-10"/>
<text text-anchor="start" x="411.17" y="-15.4" font-family="sans-serif" font-size="14.00"> &#160;Providers</text>
<polygon fill="#fb8072" stroke="transparent" points="483.5,-10 483.5,-30 503.5,-30 503.5,-10 483.5,-10"/>
<text text-anchor="start" x="507.23" y="-15.4" font-family="sans-serif" font-size="14.00"> &#160;Exports</text>
<g id="clust1" class="cluster">
<title>cluster_UsersListModule</title>
<polygon fill="none" stroke="black" stroke-dasharray="1,5" points="8,-70 8,-268 643,-268 643,-70 8,-70"/>
</g>
<g id="clust5" class="cluster">
<title>cluster_UsersListModule_imports</title>
<polygon fill="none" stroke="black" points="327,-78 327,-130 635,-130 635,-78 327,-78"/>
</g>
<g id="clust6" class="cluster">
<title>cluster_UsersListModule_exports</title>
<polygon fill="none" stroke="black" points="252,-208 252,-260 406,-260 406,-208 252,-208"/>
</g>
<g id="clust2" class="cluster">
<title>cluster_UsersListModule_declarations</title>
<polygon fill="none" stroke="black" points="16,-78 16,-130 319,-130 319,-78 16,-78"/>
</g>
<!-- UserPageComponent -->
<g id="node1" class="node">
<title>UserPageComponent</title>
<polygon fill="#ffffb3" stroke="black" points="311.47,-122 176.53,-122 176.53,-86 311.47,-86 311.47,-122"/>
<text text-anchor="middle" x="244" y="-99.8" font-family="Times,serif" font-size="14.00">UserPageComponent</text>
</g>
<!-- UsersListModule -->
<g id="node3" class="node">
<title>UsersListModule</title>
<polygon fill="#8dd3c7" stroke="black" points="385.7,-187 382.7,-191 361.7,-191 358.7,-187 272.3,-187 272.3,-151 385.7,-151 385.7,-187"/>
<text text-anchor="middle" x="329" y="-164.8" font-family="Times,serif" font-size="14.00">UsersListModule</text>
</g>
<!-- UserPageComponent&#45;&gt;UsersListModule -->
<g id="edge1" class="edge">
<title>UserPageComponent&#45;&gt;UsersListModule</title>
<path fill="none" stroke="black" d="M291.94,-122.11C291.94,-122.11 291.94,-140.99 291.94,-140.99"/>
<polygon fill="black" stroke="black" points="288.44,-140.99 291.94,-150.99 295.44,-140.99 288.44,-140.99"/>
</g>
<!-- UsersListComponent -->
<g id="node2" class="node">
<title>UsersListComponent</title>
<polygon fill="#ffffb3" stroke="black" points="158.48,-122 23.52,-122 23.52,-86 158.48,-86 158.48,-122"/>
<text text-anchor="middle" x="91" y="-99.8" font-family="Times,serif" font-size="14.00">UsersListComponent</text>
</g>
<!-- UsersListComponent&#45;&gt;UsersListModule -->
<g id="edge2" class="edge">
<title>UsersListComponent&#45;&gt;UsersListModule</title>
<path fill="none" stroke="black" d="M91,-122.11C91,-141.34 91,-169 91,-169 91,-169 262.3,-169 262.3,-169"/>
<polygon fill="black" stroke="black" points="262.3,-172.5 272.3,-169 262.3,-165.5 262.3,-172.5"/>
</g>
<!-- UsersListComponent  -->
<g id="node6" class="node">
<title>UsersListComponent </title>
<polygon fill="#fb8072" stroke="black" points="398.48,-252 259.52,-252 259.52,-216 398.48,-216 398.48,-252"/>
<text text-anchor="middle" x="329" y="-229.8" font-family="Times,serif" font-size="14.00">UsersListComponent </text>
</g>
<!-- UsersListModule&#45;&gt;UsersListComponent  -->
<g id="edge5" class="edge">
<title>UsersListModule&#45;&gt;UsersListComponent </title>
<path fill="none" stroke="black" stroke-dasharray="5,2" d="M329,-187.11C329,-187.11 329,-205.99 329,-205.99"/>
<polygon fill="black" stroke="black" points="325.5,-205.99 329,-215.99 332.5,-205.99 325.5,-205.99"/>
</g>
<!-- RateChartModule -->
<g id="node4" class="node">
<title>RateChartModule</title>
<polygon fill="#8dd3c7" stroke="black" points="627.31,-122 624.31,-126 603.31,-126 600.31,-122 510.69,-122 510.69,-86 627.31,-86 627.31,-122"/>
<text text-anchor="middle" x="569" y="-99.8" font-family="Times,serif" font-size="14.00">RateChartModule</text>
</g>
<!-- RateChartModule&#45;&gt;UsersListModule -->
<g id="edge3" class="edge">
<title>RateChartModule&#45;&gt;UsersListModule</title>
<path fill="none" stroke="black" d="M569,-122.11C569,-141.34 569,-169 569,-169 569,-169 395.88,-169 395.88,-169"/>
<polygon fill="black" stroke="black" points="395.88,-165.5 385.88,-169 395.88,-172.5 395.88,-165.5"/>
</g>
<!-- UsersListRoutingModule -->
<g id="node5" class="node">
<title>UsersListRoutingModule</title>
<polygon fill="#8dd3c7" stroke="black" points="493.32,-122 490.32,-126 469.32,-126 466.32,-122 334.68,-122 334.68,-86 493.32,-86 493.32,-122"/>
<text text-anchor="middle" x="414" y="-99.8" font-family="Times,serif" font-size="14.00">UsersListRoutingModule</text>
</g>
<!-- UsersListRoutingModule&#45;&gt;UsersListModule -->
<g id="edge4" class="edge">
<title>UsersListRoutingModule&#45;&gt;UsersListModule</title>
<path fill="none" stroke="black" d="M360.22,-122.11C360.22,-122.11 360.22,-140.99 360.22,-140.99"/>
<polygon fill="black" stroke="black" points="356.72,-140.99 360.22,-150.99 363.72,-140.99 356.72,-140.99"/>
</g>
</g>
</svg>
